<?xml version="1.0" encoding="UTF-8"?>
<svg id="Layer_1" xmlns="http://www.w3.org/2000/svg" version="1.1" viewBox="0 0 4579.73 1286">
  <!-- Generator: Adobe Illustrator 29.8.3, SVG Export Plug-In . SVG Version: 2.1.1 Build 3)  -->
  <defs>
    <style>
      .st0 {
        fill: #6285a8;
      }

      .st0, .st1 {
        stroke: #000;
        stroke-miterlimit: 10;
      }
    </style>
  </defs>
  <path class="st0" d="M1050.38,337.41l-355.98-207c-41.83-24.3-93.35-24.3-135.14,0l-355.98,207c-41.79,24.34-67.57,69.28-67.57,117.92v414.04c0,48.64,25.74,93.58,67.57,117.89l355.98,207c41.83,24.3,93.35,24.3,135.14,0l355.98-207c41.83-24.3,67.57-69.28,67.57-117.89v-414.04c0-48.64-25.74-93.58-67.57-117.89v-.03ZM394.79,882.66c-56.95,0-93.66-60.8-67.4-111.72l194.71-377.93c17.19-33.38,51.38-54.32,88.71-54.32h95.76l-279.47,543.97h-32.31ZM858.86,882.66h-358.04l107.84-205.31,37.81,73.64h113.61l-95.69-185.78,77.95-151.36,183.96,357.09c26.23,50.93-10.45,111.72-67.4,111.72h-.04Z"/>
  <g>
    <path class="st1" d="M2406.99,646.98c-34.07-19.42-73.7-24.98-129.88-30.53-48.81-4.64-89.37-8.34-112.39-13.89-25.79-6.47-33.16-21.3-33.16-40.72,0-31.47,27.63-52.76,90.3-52.76,69.08,0,91.21,24.98,92.13,73.1h123.44c0-106.42-68.17-163.8-217.41-163.8-126.22,0-227.53,54.59-227.53,153.63,0,37.96,17.49,71.27,43.28,89.78,27.64,19.45,78.32,29.62,143.74,35.17,45.13,3.7,81.98,7.4,105.92,12.96,23.96,5.55,32.25,18.51,32.25,35.17,0,33.32-25.79,54.59-98.56,54.59-80.16,0-101.33-27.77-101.33-70.34h-125.29c0,92.55,67.24,161.04,227.54,161.04s237.68-56.47,237.68-152.72c0-39.78-21.2-74.04-50.68-90.7l-.05.02h0Z"/>
    <path class="st1" d="M2789.29,418.37c-81.07,0-139.12,36.11-156.62,96.25h-1.84c.9-22.21,2.77-60.15,2.77-81.44v-191.59h-140.02v641.38h140.02c-1.84-22.21-3.68-59.23-4.61-86.08h.91c16.57,58.32,75.53,93.49,158.45,93.49,129.9,0,207.29-90.7,207.29-245.27,0-142.53-76.46-226.76-206.36-226.76v.02h.01ZM2752.44,783.04c-74.61,0-118.83-40.72-118.83-110.15v-21.3c0-78.65,44.22-125.87,117.92-125.87,65.39,0,104.09,46.27,104.09,124.02,0,84.23-38.69,133.27-103.17,133.27v.02h-.01Z"/>
    <path class="st1" d="M3380.72,623.85c0,99.95-45.15,149.93-120.69,149.93-59.86,0-94.88-29.62-94.88-93.46v-254.52h-140.02v271.18c0,134.21,73.7,193.44,191.61,193.44,86.6,0,148.34-38.87,168.6-126.81h1.84c-.93,49.98-3.68,87.91-6.43,119.38h140.02v-457.19h-140.02v198.05h-.03Z"/>
    <path class="st1" d="M4323.04,425.78l-105.95,314.67h-1.85l-116.98-314.67h-160.3l188.86,457.19h30.39c-23.02,62.93-44.21,85.15-90.28,85.15-23.03,0-44.21-3.7-58.05-7.4v104.57c11.97,4.64,41.44,12.03,87.5,12.03,93.97,0,150.17-51.83,196.21-183.25l164.91-468.3h-134.5l.03.02h.01Z"/>
    <path class="st1" d="M3702.39,510.78v-86.88h-140.81v460.39h140.81v-236.61c1.68-122.17,183-104.81,211.81-104.81v-120.87c-31.94,0-176.33-18.61-211.81,88.75v.02h0Z"/>
    <path class="st1" d="M1769.77,757.1h-238.47l-40.79,120.46h-152.41l230.37-591.66h185l230.37,591.76h-173.19l-40.79-120.46-.1-.1h.01ZM1738.94,665.37l-88.01-259.02h-1.86l-87.03,259.02h176.9Z"/>
    <path class="st1" d="M1366.86,1076.28l34.97-88.32h11.15l34.84,88.32h-15.96l-24.46-66.91-24.46,66.91h-16.08ZM1388.65,1057.78l4.56-13.05h28.26l4.81,13.05h-37.63Z"/>
    <path class="st1" d="M1527.34,1076.28v-88.32h25.34c14.53,0,25.8,3.93,33.84,11.79,8.02,7.78,12.04,18.79,12.04,33.07s-3.97,24.8-11.91,32.32c-7.85,7.43-19.22,11.15-34.08,11.15h-25.23ZM1542.04,1062.86h9.13c6.84,0,12.71-.93,17.61-2.79,4.9-1.95,8.62-5.16,11.15-9.63,2.53-4.48,3.8-10.52,3.8-18.12s-1.27-13.65-3.8-18.13c-2.45-4.56-6.04-7.81-10.77-9.76-4.64-2.03-10.22-3.04-16.72-3.04h-10.39v61.46h-.01Z"/>
    <path class="st1" d="M1705.5,1076.28l-35.48-88.32h16.23l26.98,70.46h-4.43l26.6-70.46h16.22l-35.22,88.32h-10.9,0Z"/>
    <path class="st1" d="M1812.75,1076.28l34.98-88.32h11.15l34.84,88.32h-15.96l-24.46-66.91-24.46,66.91h-16.09ZM1834.55,1057.78l4.56-13.05h28.25l4.82,13.05h-37.63Z"/>
    <path class="st1" d="M1973.24,1076.28v-88.32h15.21l42.57,69.19h-3.67v-69.19h14.7v88.32h-15.45l-42.2-69.32h3.55v69.32h-14.71Z"/>
    <path class="st1" d="M2167.23,1078.06c-8.28,0-15.55-1.9-21.8-5.71-6.24-3.8-11.15-9.16-14.69-16.09-3.47-6.93-5.2-14.99-5.2-24.2s1.73-17.23,5.2-24.08c3.54-6.93,8.45-12.29,14.69-16.09,6.25-3.8,13.52-5.7,21.8-5.7,9.2,0,17.15,2.28,23.82,6.84,6.76,4.56,11.62,10.89,14.57,19.01l-13.68,4.93c-2.02-5.32-5.15-9.45-9.37-12.41-4.23-2.96-9.33-4.44-15.33-4.44-5.49,0-10.26,1.31-14.32,3.93-4.05,2.62-7.22,6.29-9.5,11.03-2.19,4.73-3.3,10.39-3.3,16.98s1.1,12.29,3.3,17.1c2.28,4.74,5.45,8.41,9.5,11.03,4.06,2.62,8.83,3.93,14.32,3.93,6,0,11.1-1.48,15.33-4.44,4.22-3.04,7.35-7.18,9.37-12.41l13.68,4.93c-2.95,7.95-7.81,14.24-14.57,18.88-6.67,4.65-14.62,6.98-23.82,6.98h0Z"/>
    <path class="st1" d="M2287.91,1076.28v-88.32h58.66v13.05h-43.96v23.44h40.54v13.18h-40.54v25.6h43.96v13.05h-58.66Z"/>
    <path class="st1" d="M2430.52,1076.28v-88.32h25.34c14.52,0,25.8,3.93,33.83,11.79,8.02,7.78,12.04,18.79,12.04,33.07s-3.96,24.8-11.9,32.32c-7.86,7.43-19.22,11.15-34.09,11.15h-25.22ZM2445.21,1062.86h9.13c6.85,0,12.71-.93,17.61-2.79,4.91-1.95,8.62-5.16,11.15-9.63,2.54-4.48,3.8-10.52,3.8-18.12s-1.26-13.65-3.8-18.13c-2.45-4.56-6.04-7.81-10.76-9.76-4.65-2.03-10.23-3.04-16.72-3.04h-10.4v61.46h-.01Z"/>
    <path class="st1" d="M2687.28,1076.28v-88.32h21.55l24.7,66.03h-2.66l24.83-66.03h21.41v88.32h-14.7v-71.22l1.27.25-24.33,63.24h-14.31l-24.46-63.24,1.39-.25v71.22h-14.7.01Z"/>
    <path class="st1" d="M2856.56,1076.28l34.98-88.32h11.15l34.84,88.32h-15.96l-24.46-66.91-24.46,66.91h-16.09ZM2878.36,1057.78l4.56-13.05h28.25l4.82,13.05h-37.63Z"/>
    <path class="st1" d="M3025.82,1076.28v-75.27h-28.13v-13.05h70.96v13.05h-28.01v75.27h-14.82Z"/>
    <path class="st1" d="M3148.4,1076.28v-88.32h58.67v13.05h-43.97v23.44h40.55v13.18h-40.55v25.6h43.97v13.05h-58.67Z"/>
    <path class="st1" d="M3291.01,1076.28v-88.32h28.26c7.01,0,12.71,1.06,17.1,3.17,4.39,2.03,7.6,4.94,9.62,8.74,2.12,3.8,3.17,8.28,3.17,13.43,0,7.85-2.28,13.98-6.85,18.37-4.47,4.31-10.9,6.81-19.26,7.48h-17.36v37.13h-14.7.02ZM3339.41,1076.28l-22.43-38.78,15.08-1.77,24.33,40.55h-16.98ZM3305.71,1026.23h12.03c3.21,0,6.04-.39,8.49-1.14,2.53-.76,4.51-2.07,5.95-3.94,1.52-1.86,2.28-4.44,2.28-7.72s-.76-5.83-2.28-7.61c-1.44-1.77-3.42-3-5.95-3.67-2.54-.76-5.37-1.14-8.49-1.14h-12.03v25.22Z"/>
    <path class="st1" d="M3436.59,1076.28v-88.32h14.7v88.32h-14.7Z"/>
    <path class="st1" d="M3530.77,1076.28l34.97-88.32h11.15l34.84,88.32h-15.96l-24.46-66.91-24.45,66.91h-16.09ZM3552.56,1057.78l4.56-13.05h28.26l4.81,13.05h-37.63Z"/>
    <path class="st1" d="M3691.24,1076.28v-88.32h14.7v75.27h38.14v13.05h-52.84,0Z"/>
    <path class="st1" d="M3852.34,1077.93c-9.29,0-16.89-2.41-22.8-7.22-5.83-4.81-9.43-11.23-10.77-19.26l14.31-3.55c.93,5.57,3.13,9.79,6.59,12.67,3.55,2.88,7.9,4.31,13.05,4.31,2.87,0,5.44-.51,7.72-1.52,2.29-1.1,4.06-2.63,5.33-4.57,1.35-1.94,2.02-4.13,2.02-6.59,0-2.62-.72-4.77-2.16-6.46-1.43-1.77-3.5-3.33-6.21-4.69-2.7-1.43-6-2.91-9.89-4.44-5.32-2.02-9.84-4.22-13.55-6.59-3.72-2.36-6.54-5.15-8.49-8.36-1.94-3.3-2.91-7.18-2.91-11.66s1.14-8.74,3.42-12.29c2.28-3.63,5.49-6.46,9.63-8.49,4.13-2.03,8.91-3.04,14.31-3.04,5.83,0,10.98,1.31,15.46,3.93,4.47,2.62,8.06,6.59,10.76,11.91l-11.66,7.1c-1.77-3.21-3.93-5.66-6.46-7.35-2.53-1.77-5.41-2.66-8.62-2.66-2.28,0-4.35.46-6.21,1.39-1.86.84-3.33,2.07-4.44,3.67-1.02,1.61-1.52,3.47-1.52,5.57s.63,4.14,1.89,5.83c1.27,1.61,3.21,3.09,5.83,4.44,2.7,1.36,6.13,2.83,10.26,4.44,5.32,2.03,9.84,4.23,13.56,6.59,3.71,2.36,6.54,5.2,8.48,8.49,2.03,3.21,3.04,7.14,3.04,11.78,0,5.15-1.26,9.72-3.79,13.68-2.54,3.97-6.08,7.15-10.65,9.51-4.47,2.28-9.67,3.42-15.59,3.42h.06Z"/>
  </g>
</svg>