<?xml version="1.0" encoding="UTF-8" standalone="no"?>
<svg
   xmlns:dc="http://purl.org/dc/elements/1.1/"
   xmlns:cc="http://creativecommons.org/ns#"
   xmlns:rdf="http://www.w3.org/1999/02/22-rdf-syntax-ns#"
   xmlns:svg="http://www.w3.org/2000/svg"
   xmlns="http://www.w3.org/2000/svg"
   version="1.1"
   id="svg4619"
   viewBox="0 0 360.82705 105.41753"
   height="29.751169mm"
   width="101.83341mm">
  <defs
     id="defs4621">
    <clipPath
       id="clipPath44"
       clipPathUnits="userSpaceOnUse">
      <path
         id="path46"
         d="m 37.701,37.978 145.157,0 0,44.935 -145.157,0 0,-44.935 z" />
    </clipPath>
  </defs>
  <metadata
     id="metadata4624">
    <rdf:RDF>
      <cc:Work
         rdf:about="">
        <dc:format>image/svg+xml</dc:format>
        <dc:type
           rdf:resource="http://purl.org/dc/dcmitype/StillImage" />
        <dc:title></dc:title>
      </cc:Work>
    </rdf:RDF>
  </metadata>
  <g
     transform="translate(-286.37218,-452.83775)"
     id="layer1">
    <path
       id="path38"
       style="fill:#161617;fill-opacity:1;fill-rule:nonzero;stroke:none"
       d="m 351.99534,459.58875 19.61076,0 14.43517,26.79908 14.43263,-26.79908 19.61585,0 0,41.63629 -12.42244,0 0,-29.90342 -0.11705,0 -16.73798,29.90342 -9.54965,0 -16.73289,-29.90342 -0.11196,0 0,29.90342 -12.42244,0 0,-41.63629 z" />
    <g
       id="g40"
       transform="matrix(2.5445388,0,0,-2.5445388,185.47435,655.69865)">
      <g
         clip-path="url(#clipPath44)"
         id="g42">
        <g
           transform="translate(95.3186,67.8487)"
           id="g48">
          <path
             id="path50"
             style="fill:#161617;fill-opacity:1;fill-rule:nonzero;stroke:none"
             d="m 0,0 c 0,3.798 2.553,4.567 4.769,4.567 l 6.485,0 c 2.216,0 4.768,-0.769 4.768,-4.567 l 0,-2.757 c 0,-3.797 -2.552,-4.566 -4.768,-4.566 l -6.485,0 C 2.553,-7.323 0,-6.554 0,-2.757 L 0,0 Z m 4.339,-1.92 c 0,-1.649 0.972,-2.147 2.961,-2.147 l 1.04,0 c 2.802,0 3.345,0.36 3.345,1.898 l 0,1.583 c 0,1.534 -0.543,1.897 -3.345,1.897 l -1.04,0 c -1.989,0 -2.961,-0.498 -2.961,-2.146 l 0,-1.085 z" />
        </g>
        <g
           transform="translate(114.2566,72.2347)"
           id="g52">
          <path
             id="path54"
             style="fill:#161617;fill-opacity:1;fill-rule:nonzero;stroke:none"
             d="m 0,0 4.067,0 0,-2.192 0.046,0 c 0.495,1.83 2.261,2.373 4.228,2.373 3.164,0 4.404,-1.357 4.404,-4.544 0,-0.294 -0.021,-0.61 -0.043,-1.018 l -3.753,0 c 0,1.47 -0.337,2.17 -2.08,2.17 -1.491,0 -2.531,-0.564 -2.531,-1.942 l 0,-6.374 -4.338,0 L 0,0 Z" />
        </g>
        <g
           transform="translate(129.2611,67.8948)"
           id="g56">
          <path
             id="path58"
             style="fill:#161617;fill-opacity:1;fill-rule:nonzero;stroke:none"
             d="m 0,0 c 0,3.569 1.831,4.52 5.288,4.52 l 2.531,0 c 2.194,0 2.714,-0.271 3.798,-1.762 l 0.047,0 0,1.582 4.065,0 0,-10.804 c 0,-2.397 -0.767,-4.746 -6.215,-4.746 l -4.791,0 c -2.915,0 -4.564,0.7 -4.564,3.592 l 4.473,0 c 0,-0.54 0.362,-0.881 1.064,-0.881 l 3.14,0 c 1.901,0 2.828,0.611 2.828,2.553 l 0,0.769 c -0.861,-0.858 -1.582,-1.196 -3.89,-1.196 l -2.283,0 C 1.288,-6.373 0,-4.701 0,-1.582 L 0,0 Z m 8.973,-3.254 c 2.147,0 2.644,0.564 2.644,2.305 0,1.762 -0.497,2.351 -2.644,2.351 l -2.124,0 c -2.148,0 -2.646,-0.589 -2.646,-2.351 0,-1.741 0.498,-2.305 2.646,-2.305 l 2.124,0 z" />
        </g>
        <g
           transform="translate(147.4755,64.7527)"
           id="g60">
          <path
             id="path62"
             style="fill:#161617;fill-opacity:1;fill-rule:nonzero;stroke:none"
             d="m 0,0 c 0,3.142 2.17,3.323 6.376,3.323 2.371,0 3.682,-0.068 4.518,-0.927 l 0,1.017 c 0,1.13 -0.339,1.537 -2.034,1.537 l -2.553,0 C 5.04,4.95 4.68,4.837 4.634,4.023 l -4.204,0 c 0,3.12 1.537,3.64 5.199,3.64 l 5.041,0 c 2.982,0 4.563,-1.425 4.563,-4.138 l 0,-7.57 -4.113,0 0,1.31 C 9.924,-3.979 9.47,-4.227 7.3,-4.227 l -2.96,0 C 1.694,-4.249 0,-3.661 0,-0.949 L 0,0 Z m 7.731,-1.514 c 2.983,0 3.254,0.45 3.254,1.221 0,0.859 -0.246,1.175 -2.644,1.175 l -1.923,0 c -1.83,0 -2.213,-0.406 -2.213,-1.355 0,-0.747 0.585,-1.041 2.283,-1.041 l 1.243,0 z" />
        </g>
        <g
           transform="translate(165.7123,72.2347)"
           id="g64">
          <path
             id="path66"
             style="fill:#161617;fill-opacity:1;fill-rule:nonzero;stroke:none"
             d="m 0,0 4.342,0 0,-1.854 0.043,0 c 0.771,1.605 2.283,2.035 4.611,2.035 2.691,0 6.444,-0.113 6.444,-5.087 l 0,-6.621 -4.341,0 0,6.621 c 0,1.131 -0.903,1.695 -2.803,1.695 l -0.994,0 c -1.855,0 -2.96,-0.858 -2.96,-2.508 l 0,-5.808 -4.342,0 L 0,0 Z" />
        </g>
        <g
           transform="translate(69.3772,52.5412)"
           id="g68">
          <path
             id="path70"
             style="fill:#161617;fill-opacity:1;fill-rule:nonzero;stroke:none"
             d="m 0,0 1.125,0 3.974,-6.682 -1.027,0 -0.83,1.411 -5.357,0 -0.833,-1.411 -1.024,0 L 0,0 Z m 0.562,-0.737 -2.243,-3.795 4.487,0 -2.244,3.795 z" />
        </g>
        <g
           transform="translate(81.0717,45.8589)"
           id="g72">
          <path
             id="path74"
             style="fill:#161617;fill-opacity:1;fill-rule:nonzero;stroke:none"
             d="m 0,0 -0.74,0 0,0.746 -0.019,0 C -0.988,0.173 -1.635,-0.076 -2.466,-0.076 l -1.107,0 c -1.442,0 -2.449,0.362 -2.449,1.984 l 0,0.832 c 0,1.506 0.583,2.041 2.492,2.041 l 1.211,0 c 0.906,0 1.34,-0.211 1.507,-0.701 l 0.018,0 0,2.602 L 0,6.682 0,0 Z m -5.228,1.919 c 0,-0.915 0.286,-1.348 1.58,-1.348 l 1.293,0 c 1.182,0 1.561,0.498 1.561,1.359 l 0,0.893 c 0,1.127 -0.656,1.314 -1.726,1.314 l -1.072,0 c -1.089,0 -1.636,-0.205 -1.636,-1.295 l 0,-0.923 z" />
        </g>
        <g
           transform="translate(81.7776,50.565)"
           id="g76">
          <path
             id="path78"
             style="fill:#161617;fill-opacity:1;fill-rule:nonzero;stroke:none"
             d="M 0,0 0.842,0 3.133,-4.062 5.424,0 6.263,0 3.603,-4.706 2.661,-4.706 0,0 Z" />
        </g>
        <g
           transform="translate(93.6147,46.3277)"
           id="g80">
          <path
             id="path82"
             style="fill:#161617;fill-opacity:1;fill-rule:nonzero;stroke:none"
             d="M 0,0 -0.019,0 C -0.231,-0.423 -0.479,-0.546 -1.7,-0.546 l -1.902,0 c -1.201,0 -1.515,0.528 -1.515,1.415 l 0,0.314 c 0,1.072 0.757,1.2 2.143,1.2 l 1.274,0 c 1.035,0 1.405,-0.112 1.681,-0.563 L 0,1.82 0,2.707 c 0,0.849 -0.536,0.961 -1.755,0.961 l -1.163,0 c -0.998,0 -1.193,-0.241 -1.193,-0.629 l 0,-0.166 -0.793,0 0,0.23 c 0,0.859 0.544,1.209 1.967,1.209 l 1.256,0 c 1.478,0 2.474,-0.221 2.474,-1.624 l 0,-3.157 L 0,-0.469 0,0 Z m 0,1.008 c 0,0.645 -0.573,0.729 -1.792,0.729 l -1.22,0 c -1.025,0 -1.311,-0.149 -1.311,-0.739 l 0,-0.148 c 0,-0.527 0.185,-0.748 1.275,-0.748 l 1.053,0 C -0.554,0.102 0,0.204 0,0.796 l 0,0.212 z" />
        </g>
        <g
           transform="translate(95.7158,50.565)"
           id="g84">
          <path
             id="path86"
             style="fill:#161617;fill-opacity:1;fill-rule:nonzero;stroke:none"
             d="m 0,0 0.739,0 0,-0.809 0.019,0 c 0.296,0.728 0.914,0.884 1.901,0.884 l 1.191,0 c 1.488,0 1.959,-0.748 1.959,-1.598 l 0,-3.183 -0.795,0 0,2.99 c 0,0.693 -0.193,1.148 -1.736,1.148 l -0.203,0 c -1.856,0 -2.281,-0.354 -2.281,-1.462 l 0,-2.676 L 0,-4.706 0,0 Z" />
        </g>
        <g
           transform="translate(102.7115,48.7372)"
           id="g88">
          <path
             id="path90"
             style="fill:#161617;fill-opacity:1;fill-rule:nonzero;stroke:none"
             d="m 0,0 c 0,1.711 1.2,1.903 2.364,1.903 l 1.331,0 c 1.478,0 2.06,-0.599 2.06,-1.597 l 0,-0.131 -0.739,0 0,0.111 c 0,0.785 -0.518,0.972 -1.312,0.972 l -1.459,0 c -0.749,0 -1.451,-0.112 -1.451,-1.284 l 0,-0.989 c 0,-1.053 0.647,-1.293 1.607,-1.293 l 1.341,0 c 0.736,0 1.357,0.222 1.357,0.99 l 0,0.157 0.738,0 0,-0.139 c 0,-1.192 -0.591,-1.654 -2.069,-1.654 l -1.792,0 C 1.266,-2.954 0,-2.762 0,-1.052 L 0,0 Z" />
        </g>
        <g
           transform="translate(109.4601,48.7372)"
           id="g92">
          <path
             id="path94"
             style="fill:#161617;fill-opacity:1;fill-rule:nonzero;stroke:none"
             d="m 0,0 c 0,1.711 1.181,1.903 2.308,1.903 l 1.274,0 c 1.422,0 2.448,-0.361 2.448,-2.042 l 0,-0.525 -5.238,0 0,-0.296 c 0,-1.07 0.518,-1.348 1.903,-1.348 l 1.09,0 c 0.997,0 1.404,0.13 1.451,0.851 l 0.794,0 0,-0.093 c 0,-1.08 -0.897,-1.404 -2.374,-1.404 l -1.44,0 C 1.181,-2.954 0,-2.762 0,-1.023 L 0,0 Z m 5.236,0.299 c 0,0.477 -0.362,0.959 -1.654,0.959 l -1.162,0 c -1.259,0 -1.554,-0.204 -1.628,-1.274 l 4.444,0 0,0.315 z" />
        </g>
        <g
           transform="translate(122.45,45.8589)"
           id="g96">
          <path
             id="path98"
             style="fill:#161617;fill-opacity:1;fill-rule:nonzero;stroke:none"
             d="m 0,0 -0.74,0 0,0.746 -0.02,0 C -0.991,0.173 -1.638,-0.076 -2.467,-0.076 l -1.109,0 c -1.441,0 -2.447,0.362 -2.447,1.984 l 0,0.832 c 0,1.506 0.581,2.041 2.493,2.041 l 1.211,0 c 0.905,0 1.34,-0.211 1.506,-0.701 l 0.018,0 0,2.602 L 0,6.682 0,0 Z m -5.228,1.919 c 0,-0.915 0.286,-1.348 1.578,-1.348 l 1.293,0 c 1.182,0 1.562,0.498 1.562,1.359 l 0,0.893 c 0,1.127 -0.654,1.314 -1.727,1.314 l -1.073,0 c -1.088,0 -1.633,-0.205 -1.633,-1.295 l 0,-0.923 z" />
        </g>
        <g
           transform="translate(126.6393,52.5412)"
           id="g100">
          <path
             id="path102"
             style="fill:#161617;fill-opacity:1;fill-rule:nonzero;stroke:none"
             d="M 0,0 1.412,0 5.319,-5.604 9.226,0 l 1.413,0 0,-6.682 -0.906,0 0,5.872 -0.017,0 -4.073,-5.872 -0.647,0 -4.072,5.872 -0.017,0 0,-5.872 L 0,-6.682 0,0 Z" />
        </g>
        <g
           transform="translate(143.6266,46.3277)"
           id="g104">
          <path
             id="path106"
             style="fill:#161617;fill-opacity:1;fill-rule:nonzero;stroke:none"
             d="m 0,0 -0.019,0 c -0.213,-0.423 -0.463,-0.546 -1.682,-0.546 l -1.901,0 c -1.2,0 -1.515,0.528 -1.515,1.415 l 0,0.314 c 0,1.072 0.757,1.2 2.141,1.2 l 1.275,0 c 1.036,0 1.402,-0.112 1.682,-0.563 L 0,1.82 0,2.707 c 0,0.849 -0.538,0.961 -1.756,0.961 l -1.166,0 c -0.993,0 -1.19,-0.241 -1.19,-0.629 l 0,-0.166 -0.794,0 0,0.23 c 0,0.859 0.546,1.209 1.967,1.209 l 1.257,0 c 1.478,0 2.475,-0.221 2.475,-1.624 l 0,-3.157 L 0,-0.469 0,0 Z m 0,1.008 c 0,0.645 -0.572,0.729 -1.794,0.729 l -1.215,0 c -1.028,0 -1.315,-0.149 -1.315,-0.739 l 0,-0.148 c 0,-0.527 0.185,-0.748 1.276,-0.748 l 1.051,0 C -0.556,0.102 0,0.204 0,0.796 l 0,0.212 z" />
        </g>
        <g
           transform="translate(146.1505,49.9217)"
           id="g108">
          <path
             id="path110"
             style="fill:#161617;fill-opacity:1;fill-rule:nonzero;stroke:none"
             d="m 0,0 -1.033,0 0,0.643 1.033,0 0,1.121 0.793,0 0,-1.121 3.151,0 0,-0.643 -3.151,0 0,-2.346 c 0,-0.878 0.307,-1.146 1.175,-1.146 l 0.25,0 c 1.053,0 1.218,0.222 1.218,1.21 l 0,0.352 0.647,0 0,-0.521 c 0,-0.939 -0.093,-1.688 -1.81,-1.688 l -0.435,0 C 0.351,-4.139 0,-3.418 0,-2.652 L 0,0 Z" />
        </g>
        <g
           transform="translate(150.8952,48.7372)"
           id="g112">
          <path
             id="path114"
             style="fill:#161617;fill-opacity:1;fill-rule:nonzero;stroke:none"
             d="m 0,0 c 0,1.711 1.183,1.903 2.31,1.903 l 1.273,0 c 1.422,0 2.448,-0.361 2.448,-2.042 l 0,-0.525 -5.237,0 0,-0.296 c 0,-1.07 0.517,-1.348 1.902,-1.348 l 1.091,0 c 0.997,0 1.404,0.13 1.449,0.851 l 0.795,0 0,-0.093 c 0,-1.08 -0.895,-1.404 -2.374,-1.404 l -1.441,0 C 1.183,-2.954 0,-2.762 0,-1.023 L 0,0 Z m 5.236,0.299 c 0,0.477 -0.358,0.959 -1.653,0.959 l -1.163,0 c -1.256,0 -1.552,-0.204 -1.626,-1.274 l 4.442,0 0,0.315 z" />
        </g>
        <g
           transform="translate(158.1401,50.565)"
           id="g116">
          <path
             id="path118"
             style="fill:#161617;fill-opacity:1;fill-rule:nonzero;stroke:none"
             d="m 0,0 0.74,0 0,-0.681 0.018,0 c 0.295,0.61 0.895,0.756 1.442,0.756 l 0.747,0 c 1.487,0 1.977,-0.479 1.977,-1.633 l 0,-0.564 -0.741,0 0,0.204 c 0,1.162 -0.238,1.35 -1.651,1.35 l -0.489,0 c -0.841,0 -1.249,-0.538 -1.249,-1.148 l 0,-2.99 L 0,-4.706 0,0 Z" />
        </g>
        <path
           id="path120"
           style="fill:#161617;fill-opacity:1;fill-rule:nonzero;stroke:none"
           d="m 164.02,51.677 0.794,0 0,0.864 -0.794,0 0,-0.864 z m 0,-5.817 0.794,0 0,4.706 -0.794,0 0,-4.706 z" />
        <g
           transform="translate(171.1934,46.3277)"
           id="g122">
          <path
             id="path124"
             style="fill:#161617;fill-opacity:1;fill-rule:nonzero;stroke:none"
             d="m 0,0 -0.018,0 c -0.211,-0.423 -0.461,-0.546 -1.681,-0.546 l -1.901,0 c -1.201,0 -1.517,0.528 -1.517,1.415 l 0,0.314 c 0,1.072 0.757,1.2 2.143,1.2 l 1.275,0 c 1.035,0 1.403,-0.112 1.681,-0.563 L 0,1.82 0,2.707 c 0,0.849 -0.537,0.961 -1.755,0.961 l -1.165,0 c -0.997,0 -1.192,-0.241 -1.192,-0.629 l 0,-0.166 -0.793,0 0,0.23 c 0,0.859 0.545,1.209 1.967,1.209 l 1.26,0 c 1.475,0 2.472,-0.221 2.472,-1.624 l 0,-3.157 L 0,-0.469 0,0 Z m 0,1.008 c 0,0.645 -0.572,0.729 -1.793,0.729 l -1.217,0 c -1.026,0 -1.312,-0.149 -1.312,-0.739 l 0,-0.148 c 0,-0.527 0.184,-0.748 1.273,-0.748 l 1.053,0 C -0.555,0.102 0,0.204 0,0.796 l 0,0.212 z" />
        </g>
        <path
           id="path126"
           style="fill:#161617;fill-opacity:1;fill-rule:nonzero;stroke:none"
           d="m 173.405,45.86 0.794,0 0,6.682 -0.794,0 0,-6.682 z" />
        <g
           transform="translate(175.5382,47.48)"
           id="g128">
          <path
             id="path130"
             style="fill:#161617;fill-opacity:1;fill-rule:nonzero;stroke:none"
             d="m 0,0 0.737,0 0,-0.232 c 0,-0.579 0.304,-0.819 1.12,-0.819 l 1.698,0 c 1.192,0 1.572,0.047 1.572,0.748 l 0,0.037 c 0,0.452 -0.131,0.702 -1.081,0.702 l -2.447,0 c -1.12,0 -1.534,0.361 -1.534,1.257 l 0,0.277 c 0,0.767 0.433,1.19 2.391,1.19 l 1.219,0 c 1.792,0 2.041,-0.517 2.041,-1.179 l 0,-0.253 -0.739,0 0,0.047 c 0,0.72 -0.478,0.74 -1.347,0.74 l -1.384,0 C 1.109,2.515 0.86,2.404 0.86,1.868 l 0,-0.175 c 0,-0.388 0.129,-0.609 0.96,-0.609 l 2.096,0 c 1.191,0 2.003,-0.122 2.003,-1.397 l 0,-0.02 c 0,-1.317 -1.218,-1.364 -2.189,-1.364 l -1.457,0 C 1.1,-1.697 0,-1.697 0,-0.284 L 0,0 Z" />
        </g>
        <g
           transform="translate(39.6527,60.7347)"
           id="g132">
          <path
             id="path134"
             style="fill:#161617;fill-opacity:1;fill-rule:nonzero;stroke:none"
             d="m 0,0 0,18.988 c 0,0 2.282,-0.008 2.282,0 0,0.014 7.643,-14.242 7.643,-14.229 0,0 7.709,14.225 7.701,14.229 -0.004,0.003 2.284,0 2.284,0 L 19.91,0 0,0 Z" />
        </g>
        <g
           transform="translate(39.6527,58.2041)"
           id="g136">
          <path
             id="path138"
             style="fill:#161617;fill-opacity:1;fill-rule:nonzero;stroke:none"
             d="m 0,0 19.91,0 c 0,0 0.003,-2.251 0,-2.244 -0.005,0.012 -15.015,-3.236 -15.015,-7.704 0,-5.37 15.013,-7.724 15.015,-7.721 0.002,0.007 0,-2.24 0,-2.24 L 0,-19.909 0,0 Z" />
        </g>
      </g>
    </g>
  </g>
</svg>
