<svg height="245.651842" viewBox="0 0 15.264691 9.1595733" width="407.080196" xmlns="http://www.w3.org/2000/svg"><path d="m102.39965 172.54011c-.0395.0198-.11289.0356-.17427.0356-.30269 0-.51012-.14852-.51012-.48472 0-.3048.19191-.48859.46884-.48859.17992 0 .31045.073.36195.13264.0318-.0257.0949-.0832.0949-.16051 0-.0356-.0219-.073-.0691-.10478-.0494-.0356-.17604-.0949-.38383-.0949-.42157 0-.73589.27516-.73589.71613 0 .47096.31856.71226.76941.71226.16616 0 .33231-.0434.41945-.11289v-.55386c0-.0871-.0476-.13441-.14041-.13441h-.40957c-.01.0335-.0138.0632-.0138.0928 0 .091.0374.12665.11677.12665h.20567zm-3.695699.22754c.0099-.18203.04163-.80116.05362-.98319.0949.1838.257175.52211.308681.64488.02752.012.06914.0197.100894.0197.0314 0 .07303-.008.100895-.0197.05715-.12877.246944-.52423.308328-.64876.006.11853.05151.86254.0575.98707h.245181c-.01164-.22366-.06103-1.10384-.07514-1.32962-.0314-.0138-.08114-.0275-.146403-.0275-.0949 0-.154163.0374-.191911.11677-.05327.10865-.217664.45296-.292805.61312l-.340078-.70238c-.03563-.0155-.08714-.0275-.136525-.0275-.09913 0-.164394.0575-.172156.16227-.01376.17392-.0575.98708-.06738 1.19486zm-4.018139 0h.245534v-.49847c.02963.004.118533.0138.201788.0138.03351 0 .07726-.002.112889-.006.07514.0991.239184.40358.280811.49071h.282928c-.08714-.17215-.209903-.39758-.318558-.54786.15628-.0695.253294-.19015.253294-.38382 0-.26917-.201789-.43921-.603602-.43921-.20567 0-.306564.0116-.346075.0197-.05927.0116-.109009.0455-.109009.12841zm.245534-1.14335c.01976-.004.08114-.012.203552-.012.279048 0 .352425.1069.352425.22543 0 .13864-.08502.22966-.346427.22966-.12065 0-.179917-.008-.20955-.0159zm5.347404 1.14335c.0296-.0811.0751-.20179.13264-.34607h.59549c.0416.10477.10866.28081.13265.34607h.27305c-.0635-.16827-.43145-1.12783-.5581-1.34126-.0356-.0141-.0829-.024-.13052-.024-.0931 0-.14852.0356-.1958.14076-.18591.41734-.37182.8763-.49847 1.22449zm.21167-.56197c.0713-.19368.16439-.40534.22366-.54011.0374.0811.15416.35807.21766.54011zm5.03308.44132c.12841.085.33831.15628.56762.15628.35807 0 .55209-.16616.55209-.41733 0-.22755-.15028-.35031-.41945-.3997l-.20179-.0377c-.15028-.0275-.22366-.079-.22366-.17991 0-.1069.0713-.17428.27305-.17428.22754 0 .37606.0931.42369.14464.0314-.024.079-.085.079-.15451 0-.0455-.0296-.079-.0713-.10654-.0416-.0279-.1644-.10301-.43533-.10301-.37006 0-.52423.18591-.52423.40957 0 .24906.20567.35807.41346.39546l.19791.0356c.13052.024.22154.0635.22154.18627 0 .11254-.0871.1778-.28081.1778-.17039 0-.30092-.0395-.46108-.13264zm-9.270649-1.22273c-.02575-.008-.06138-.0137-.110772-.0137-.08114 0-.140406.0356-.140406.10865v1.24848h.251178v-.59337h.632883v.59337h.251531v-1.34338c-.02575-.008-.06138-.0137-.110772-.0137-.08114 0-.140759.0356-.140759.10865v.43145h-.632883zm7.814379 0c-.0254-.008-.061-.0137-.11077-.0137-.0889 0-.14041.0356-.14041.10865v.8449c-.16404-.26317-.55386-.8329-.63288-.93168-.0378-.0141-.0833-.0219-.12065-.0219-.0892 0-.1584.0356-.1584.13828v1.21885h.25118v-.99518c.20002.27904.52846.78351.65899.99518h.25294zm.54434.53411v-.32032h.71402c.01-.024.0138-.0515.0138-.097 0-.073-.0356-.13052-.10866-.13052h-.72602c-.0949 0-.14463.0473-.14463.1344v1.22273h.97931v-.22754h-.72778v-.35419h.58561c.01-.0236.0138-.0515.0138-.097 0-.073-.0356-.13053-.10901-.13053zm2.23132.80927h.25153v-1.34338c-.0258-.008-.0614-.0137-.11078-.0137-.085 0-.14075.0356-.14075.10865zm1.55116-1.12959c.0734 0 .10901-.0575.10901-.13053 0-.0455-.004-.0734-.0141-.097h-1.12572c-.073 0-.10865.0575-.10865.13052 0 .0455.004.073.0138.097h.48471v1.12959h.25118v-1.12959zm-10.972093 1.12959h.251177v-1.34338c-.0254-.008-.06103-.0137-.110772-.0137-.08502 0-.140405.0356-.140405.10865zm11.130493 0c.0296-.0811.0751-.20179.13264-.34607h.59549c.0413.10477.10866.28081.13229.34607h.27305c-.0631-.16827-.43109-1.12783-.55774-1.34126-.0356-.0141-.0833-.024-.13053-.024-.0931 0-.14852.0356-.19614.14076-.18592.41734-.37183.8763-.49848 1.22449zm.21166-.56197c.0713-.19368.16405-.40534.22366-.54011.0374.0811.15417.35807.21732.54011zm-3.97263-8.24759c-.079-.0455-.11077-.0498-.14428-.0498-.0318 0-.0653.004-.14464.0498l-2.4451 1.4104-2.437345-1.4104c-.07937-.0455-.112889-.0498-.144639-.0498-.03351 0-.06526.004-.144286.0498l-2.512483 1.45379c-.09313.0536-.12065.10901-.12065.17816 0 .0734.04163.12876.12065.17427l2.512483 1.45415c.07902.0455.110772.0494.144286.0494.03175 0 .06526-.004.144639-.0494l4.951945-2.8568c.0335-.0198.0554-.0279.0751-.0279.0198 0 .0455.008.079.0279l2.31669 1.34126c.0593.0335.10266.079.12665.14641.1838-.0593.25506-.14253.25506-.25541 0-.073-.0356-.1323-.16228-.20567zm-3.11608 1.63018-.4826.2787-1.572685-.91193c-.07937-.0455-.112889-.0494-.144639-.0494-.03351 0-.06526.004-.144286.0494l-1.5748.91016-.480836-.27693 2.12478-1.22661c.03387-.0198.05539-.0279.07514-.0279.01976 0 .04163.008.07514.0279zm3.11608.36407c-.079-.0455-.11077-.0497-.14428-.0497-.0318 0-.0653.004-.14464.0497l-4.951942 2.85644c-.03351.0198-.05539.0279-.07514.0279-.01976 0-.04551-.008-.07902-.0279l-2.316692-1.34126c-.05927-.0335-.103011-.079-.126647-.1464-.183797.0593-.255058.14252-.255058.25541 0 .073.03563.13229.162277.20567l2.470856 1.43016c.07902.0455.110772.0497.144286.0497.03175 0 .06526-.004.144639-.0497l4.951941-2.8568c.0335-.0198.0554-.0275.0751-.0275.0198 0 .0455.008.079.0275l2.31669 1.34162c.0593.0335.10266.079.12665.1464.1838-.0596.25506-.14252.25506-.25541 0-.073-.0356-.13229-.16228-.20567zm0-.9973c-.079-.0455-.11077-.0494-.14428-.0494-.0318 0-.0653.004-.14464.0494l-4.951942 2.85679c-.03351.0198-.05539.0279-.07514.0279-.01976 0-.04551-.008-.07902-.0279l-2.316692-1.34126c-.05927-.0339-.103011-.0794-.126647-.1464-.183797.0593-.255058.14252-.255058.25505 0 .0734.03563.13265.162277.20567l2.470856 1.43052c.07902.0455.110772.0494.144286.0494.03175 0 .06526-.004.144639-.0494l4.951941-2.8568c.0335-.0198.0554-.0275.0751-.0275.0198 0 .0455.008.079.0275l2.31669 1.34126c.0593.0339.10266.0794.12665.14641.1838-.0593.25506-.14217.25506-.25506 0-.0734-.0356-.13265-.16228-.20567zm-5.391146 1.28411c.03387-.0198.05539-.0279.07514-.0279.01976 0 .04163.008.07514.0279l.502706.2868-.502706.28893c-.03351.0198-.05539.0275-.07514.0275-.01976 0-.04551-.008-.07902-.0275l-.498475-.28893zm1.444276-.17216-.47872.27693-.745775-.43145c-.07514-.0434-.112889-.0494-.144639-.0494-.03351 0-.06526.004-.144286.0494l-.749653.43145-.476955-.27693 1.295752-.74789c.03387-.0198.05539-.0279.07514-.0279.01976 0 .04163.008.07514.0279zm-1.51342 4.14267c.07902.0455.110772.0494.144286.0494.03175 0 .06526-.004.144639-.0494l2.445105-1.41076 2.43734 1.41076c.0794.0455.11289.0494.14464.0494.0335 0 .0653-.004.14428-.0494l2.51249-1.45415c.0931-.0533.12065-.10866.12065-.17815 0-.073-.0416-.12841-.12065-.17392l-2.51249-1.45415c-.079-.0455-.11077-.0494-.14428-.0494-.0318 0-.0653.004-.14464.0494l-4.951942 2.85679c-.03351.0198-.05539.0275-.07514.0275-.01976 0-.04551-.008-.07902-.0275l-2.316692-1.34126c-.05927-.0339-.103011-.0794-.126647-.1464-.183797.0593-.255058.14217-.255058.25506 0 .0734.03563.13264.162277.20567zm3.11608-1.63019.4826-.27904 1.57269.91193c.0794.0455.11289.0497.14464.0497.0335 0 .0653-.004.14428-.0497l1.5748-.90982.48084.27693-2.12478 1.22661c-.0339.0198-.0554.0275-.0751.0275-.0198 0-.0416-.008-.0751-.0275zm2.27507-.65087c-.0339.0197-.0554.0275-.0751.0275-.0198 0-.0416-.008-.0751-.0275l-.50271-.28681.50271-.28892c.0335-.0198.0554-.0279.0751-.0279.0198 0 .0455.008.079.0279l.49847.28892zm-1.44427.17215.47872-.27693.74577.4311c.0751.0437.11289.0494.14464.0494.0335 0 .0653-.004.14428-.0494l.74966-.4311.47695.27693-1.29575.74789c-.0339.0198-.0554.0275-.0751.0275-.0198 0-.0416-.008-.0751-.0275z" fill="#3c4d5f" transform="translate(-94.553521 -163.776)"/></svg>