<?xml version="1.0" encoding="UTF-8"?>
<svg id="Layer_2" data-name="Layer 2" xmlns="http://www.w3.org/2000/svg" viewBox="0 0 37.85 9.44">
  <defs>
    <style>
      .cls-1 {
        fill: #009d6a;
      }

      .cls-2 {
        fill: #231f20;
      }
    </style>
  </defs>
  <g id="Layer_1-2" data-name="Layer 1">
    <g>
      <g>
        <path class="cls-2" d="M.86,4.14c-.14-.13-.27-.17-.38-.17-.15,0-.26.08-.26.19,0,.31.71.31.71.83,0,.26-.19.44-.46.44-.18,0-.32-.05-.46-.15v-.3c.12.15.27.24.43.24.18,0,.27-.12.27-.21,0-.34-.71-.38-.71-.83,0-.27.2-.44.5-.44.13,0,.25.04.37.12v.27Z"/>
        <path class="cls-2" d="M3.16,4.78c0,.4-.24.67-.73.67-.35,0-.68-.19-.68-.64v-1.02h.24v.97c0,.19.02.26.1.34.09.09.21.14.35.14.18,0,.31-.06.39-.13.08-.08.1-.2.1-.36v-.95h.24v.99Z"/>
        <path class="cls-2" d="M4.59,3.78c.36,0,.52.21.52.47s-.17.46-.55.46h-.25v.71h-.24v-1.64h.51ZM4.31,4.5h.27c.18,0,.29-.09.29-.26,0-.12-.07-.25-.28-.25h-.28v.51Z"/>
        <path class="cls-2" d="M6.84,3.99h-.7v.49h.67v.21h-.67v.51h.72v.21h-.95v-1.64h.93v.21Z"/>
        <path class="cls-2" d="M8.14,3.78c.33,0,.54.18.54.46,0,.19-.1.33-.27.4.15.1.24.25.37.45.07.11.11.17.22.32h-.28l-.22-.34c-.22-.34-.32-.37-.44-.37h-.1v.71h-.24v-1.64h.41ZM7.96,4.5h.15c.25,0,.33-.13.32-.27,0-.15-.09-.25-.32-.25h-.15v.51Z"/>
        <path class="cls-2" d="M10.01,5.42h-.24v-1.64h.24v1.64Z"/>
        <path class="cls-2" d="M11.78,3.76c.54,0,.88.38.88.84s-.33.84-.89.84-.88-.4-.88-.84.35-.84.88-.84ZM11.78,5.22c.37,0,.64-.27.64-.62s-.27-.62-.64-.62-.64.26-.64.62.27.62.64.62Z"/>
        <path class="cls-2" d="M13.97,3.78c.33,0,.54.18.54.46,0,.19-.1.33-.27.4.15.1.24.25.37.45.07.11.11.17.22.32h-.28l-.22-.34c-.22-.34-.31-.37-.44-.37h-.1v.71h-.24v-1.64h.41ZM13.79,4.5h.15c.25,0,.32-.13.32-.27,0-.15-.09-.25-.32-.25h-.15v.51Z"/>
      </g>
      <g>
        <path class="cls-2" d="M24.26,5.31c-.22.1-.4.13-.63.13-.5,0-.87-.35-.87-.83s.38-.85.88-.85c.19,0,.33.03.58.14v.24c-.19-.11-.39-.16-.59-.16-.36,0-.63.27-.63.63s.27.62.66.62c.13,0,.24-.03.36-.06v-.34h-.31v-.21h.55v.7Z"/>
        <path class="cls-2" d="M25.62,3.78c.33,0,.54.18.54.46,0,.19-.1.33-.27.4.15.1.24.25.37.45.07.11.11.17.22.32h-.28l-.22-.34c-.22-.34-.31-.37-.44-.37h-.1v.71h-.24v-1.64h.41ZM25.44,4.5h.15c.25,0,.33-.13.32-.27,0-.15-.09-.25-.32-.25h-.15v.51Z"/>
        <path class="cls-2" d="M28.68,5.42h-.24l-.22-.48h-.7l-.21.48h-.24l.7-1.65h.17l.73,1.65ZM27.61,4.72h.51l-.26-.59-.24.59Z"/>
        <path class="cls-2" d="M29.96,3.78c.36,0,.52.21.52.47s-.17.46-.55.46h-.25v.71h-.24v-1.64h.51ZM29.68,4.5h.27c.18,0,.29-.09.29-.26,0-.12-.06-.25-.28-.25h-.28v.51Z"/>
        <path class="cls-2" d="M32.68,5.42h-.24v-.71h-.92v.71h-.24v-1.64h.24v.71h.92v-.71h.24v1.64Z"/>
        <path class="cls-2" d="M33.88,5.42h-.24v-1.64h.24v1.64Z"/>
        <path class="cls-2" d="M36.07,3.99h-.57v1.43h-.24v-1.43h-.57v-.21h1.37v.21Z"/>
        <path class="cls-2" d="M37.82,3.99h-.7v.49h.67v.21h-.67v.51h.72v.21h-.95v-1.64h.93v.21Z"/>
      </g>
      <path class="cls-1" d="M17.02,5.12c-.06-.25-.09-.51-.09-.78,0-1.39,1.13-2.51,2.51-2.51.3,0,.59.04.85.12l-3.27,3.17ZM20.73,4.19l-2.11.45,1.31-1.64c.4.3.66.71.8,1.2M18.32,7.56c-.28,0-.55-.04-.8-.11l3.24-3.13c.05.23.08.48.08.73,0,1.39-1.12,2.51-2.51,2.51M17.05,5.25l1.3-.28.81-.17-1.3,1.63c-.41-.29-.68-.7-.82-1.18M21.87,3.59c-.1-.72-.46-1.35-1-1.79l1.44-1.81-1.68,1.63c-.44-.29-.96-.46-1.53-.46-1.55,0-2.8,1.25-2.8,2.8,0,1.09.63,2.03,1.54,2.49l-.68.86c-.62-.28-1.08-.8-1.27-1.52.1.73.48,1.38,1.03,1.82l-1.46,1.83,1.7-1.65c.43.27.94.43,1.49.43,1.55,0,2.8-1.25,2.8-2.8,0-1.07-.61-2-1.5-2.47l.68-.86c.6.28,1.04.8,1.23,1.5"/>
    </g>
  </g>
</svg>