<?xml version="1.0" encoding="UTF-8" standalone="no"?>
<!-- Created with Inkscape (http://www.inkscape.org/) -->

<svg
   xmlns:dc="http://purl.org/dc/elements/1.1/"
   xmlns:cc="http://creativecommons.org/ns#"
   xmlns:rdf="http://www.w3.org/1999/02/22-rdf-syntax-ns#"
   xmlns:svg="http://www.w3.org/2000/svg"
   xmlns="http://www.w3.org/2000/svg"
   xmlns:sodipodi="http://sodipodi.sourceforge.net/DTD/sodipodi-0.dtd"
   xmlns:inkscape="http://www.inkscape.org/namespaces/inkscape"
   width="386.01187mm"
   height="39.710129mm"
   viewBox="0 0 1367.7586 140.70518"
   id="svg9770"
   version="1.1"
   inkscape:version="0.91 r13725"
   sodipodi:docname="Vesuvius_Logo.svg">
  <defs
     id="defs9772" />
  <sodipodi:namedview
     id="base"
     pagecolor="#ffffff"
     bordercolor="#666666"
     borderopacity="1.0"
     inkscape:pageopacity="0.0"
     inkscape:pageshadow="2"
     inkscape:zoom="0.35"
     inkscape:cx="606.02217"
     inkscape:cy="-267.77677"
     inkscape:document-units="px"
     inkscape:current-layer="layer1"
     showgrid="false"
     inkscape:window-width="1600"
     inkscape:window-height="837"
     inkscape:window-x="-8"
     inkscape:window-y="-8"
     inkscape:window-maximized="1"
     fit-margin-top="0"
     fit-margin-left="0"
     fit-margin-right="0"
     fit-margin-bottom="0" />
  <metadata
     id="metadata9775">
    <rdf:RDF>
      <cc:Work
         rdf:about="">
        <dc:format>image/svg+xml</dc:format>
        <dc:type
           rdf:resource="http://purl.org/dc/dcmitype/StillImage" />
        <dc:title></dc:title>
      </cc:Work>
    </rdf:RDF>
  </metadata>
  <g
     inkscape:label="Ebene 1"
     inkscape:groupmode="layer"
     id="layer1"
     transform="translate(696.73645,-123.88026)">
    <g
       id="g10382">
      <path
         inkscape:connector-curvature="0"
         id="path5442"
         style="fill:#4d4d4f;fill-opacity:1;fill-rule:nonzero;stroke:none"
         d="m 276.61635,123.91244 -19.17043,0 0,140.67299 19.17043,0 0,-140.67299 z" />
      <g
         transform="matrix(10.367997,0,0,-10.367997,-549.47979,123.91136)"
         id="g5452">
        <path
           inkscape:connector-curvature="0"
           id="path5454"
           style="fill:#4d4d4f;fill-opacity:1;fill-rule:nonzero;stroke:none"
           d="m 0,0 -5.572,-11.203 c -0.06,-0.177 -0.402,-0.308 -0.595,-0.308 -0.204,0 -0.545,0.131 -0.605,0.308 L -12.34,0.003 -14.203,0 l 6.589,-13.568 2.887,0 L 1.86,0 0,0 Z" />
      </g>
      <g
         transform="matrix(10.367997,0,0,-10.367997,202.98391,123.91136)"
         id="g5456">
        <path
           inkscape:connector-curvature="0"
           id="path5458"
           style="fill:#4d4d4f;fill-opacity:1;fill-rule:nonzero;stroke:none"
           d="m 0,0 -5.584,-11.203 c -0.051,-0.177 -0.397,-0.308 -0.589,-0.308 -0.2,0 -0.546,0.131 -0.601,0.308 L -12.346,0.003 -14.202,0 l 6.584,-13.568 2.887,0 L 1.865,0 0,0 Z" />
      </g>
      <g
         transform="matrix(10.367997,0,0,-10.367997,19.06493,123.91136)"
         id="g5460">
        <path
           inkscape:connector-curvature="0"
           id="path5462"
           style="fill:#4d4d4f;fill-opacity:1;fill-rule:nonzero;stroke:none"
           d="m 0,0 -1.85,0 0,-11.271 c 0,-0.24 -0.194,-0.436 -0.439,-0.442 l -8.925,0 c -0.226,0.006 -0.409,0.187 -0.428,0.405 l 0,11.308 -1.857,0 0,-11.442 0.03,0 c -0.011,-0.103 -0.03,-0.206 -0.03,-0.312 0,-0.96 0.777,-1.74 1.756,-1.808 l 0,-0.006 9.951,0 0,0.006 C -0.796,-13.522 0,-12.726 0,-11.754 L 0,-11.676 0,0 Z" />
      </g>
      <g
         transform="matrix(10.367997,0,0,-10.367997,476.49682,123.91136)"
         id="g5464">
        <path
           inkscape:connector-curvature="0"
           id="path5466"
           style="fill:#4d4d4f;fill-opacity:1;fill-rule:nonzero;stroke:none"
           d="m 0,0 -1.856,0 0,-11.271 c 0,-0.24 -0.187,-0.436 -0.434,-0.442 l -8.925,0 c -0.229,0.006 -0.41,0.187 -0.429,0.405 l 0,11.308 -1.85,0 0,-11.442 0.025,0 c -0.021,-0.103 -0.025,-0.206 -0.025,-0.312 0,-0.96 0.773,-1.74 1.752,-1.808 l 0,-0.006 9.949,0 0,0.006 c 0.993,0.04 1.793,0.836 1.793,1.808 0,0.025 -0.006,0.053 -0.006,0.078 L 0,-11.676 0,0 Z" />
      </g>
      <g
         transform="matrix(10.367997,0,0,-10.367997,-469.84735,143.09216)"
         id="g5468">
        <path
           inkscape:connector-curvature="0"
           id="path5470"
           style="fill:#4d4d4f;fill-opacity:1;fill-rule:nonzero;stroke:none"
           d="m 0,0 10.631,0 0,1.852 -12.896,0 0,-5.856 -0.008,0 0,-1.855 0.008,0 0,-5.859 12.896,0 0,1.854 -10.615,0 c -0.233,0.007 -0.418,0.194 -0.43,0.419 l 0,3.169 c 0.012,0.228 0.186,0.402 0.408,0.417 l 6.542,0 0,1.855 -6.53,0 c -0.223,0.009 -0.408,0.187 -0.42,0.418 l 0,3.168 C -0.402,-0.192 -0.228,-0.014 0,0" />
      </g>
      <g
         transform="matrix(10.367997,0,0,-10.367997,-175.81087,142.70755)"
         id="g5472">
        <path
           inkscape:connector-curvature="0"
           id="path5474"
           style="fill:#4d4d4f;fill-opacity:1;fill-rule:nonzero;stroke:none"
           d="m 0,0 c 0,0.979 -0.799,1.774 -1.796,1.813 l 0,0.002 -9.953,0 0,-0.005 c -0.975,-0.06 -1.748,-0.84 -1.75,-1.799 l 0,-4.02 0.002,0 c 0,-0.023 -0.002,-0.046 -0.002,-0.073 0,-0.961 0.773,-1.748 1.75,-1.807 l 0,-0.007 9.463,0 c 0.226,-0.005 0.417,-0.183 0.425,-0.41 l 0,-3.177 c -0.008,-0.23 -0.199,-0.411 -0.425,-0.418 l -8.932,0 c -0.235,0.007 -0.431,0.202 -0.431,0.437 l 0,0.424 c -0.003,0.514 -0.417,0.922 -0.925,0.922 -0.512,0 -0.923,-0.408 -0.925,-0.922 l 0,-0.83 0.002,0 c 0,-0.024 -0.002,-0.047 -0.002,-0.072 0,-0.959 0.773,-1.739 1.75,-1.808 l 0,-0.005 9.953,0 0,0.005 c 0.997,0.041 1.796,0.837 1.796,1.808 0,0.025 0,0.054 -0.007,0.078 l 0.007,0 0,4.019 c -0.007,0.971 -0.803,1.76 -1.796,1.801 l 0,0.003 -9.43,0 c -0.232,0.009 -0.423,0.199 -0.423,0.435 l 0,3.132 c 0,0.237 0.191,0.423 0.419,0.437 l 8.962,0 c 0.219,-0.014 0.399,-0.191 0.407,-0.413 l 0,-0.441 0.006,0 c 0,-0.511 0.416,-0.926 0.922,-0.926 0.511,0 0.926,0.415 0.933,0.926 l 0,0.827 -0.007,0 C -0.007,-0.042 0,-0.021 0,0" />
      </g>
      <g
         transform="matrix(10.367997,0,0,-10.367997,671.02218,142.70755)"
         id="g5476">
        <path
           inkscape:connector-curvature="0"
           id="path5478"
           style="fill:#4d4d4f;fill-opacity:1;fill-rule:nonzero;stroke:none"
           d="m 0,0 c 0,0.979 -0.797,1.774 -1.797,1.813 l 0,0.002 -9.948,0 0,-0.005 C -12.723,1.75 -13.49,0.97 -13.501,0.011 l 0,-4.02 0.003,0 c 0,-0.023 -0.003,-0.046 -0.003,-0.073 0,-0.961 0.778,-1.748 1.756,-1.807 l 0,-0.007 9.456,0 c 0.236,-0.005 0.419,-0.183 0.429,-0.41 l 0,-3.177 c -0.01,-0.23 -0.198,-0.411 -0.429,-0.418 l -8.923,0 c -0.237,0.007 -0.426,0.202 -0.436,0.437 l 0,0.424 c 0,0.514 -0.409,0.922 -0.921,0.922 -0.511,0 -0.929,-0.408 -0.932,-0.922 l 0,-0.83 0.011,0 c -0.008,-0.024 -0.011,-0.047 -0.011,-0.072 0,-0.959 0.778,-1.739 1.756,-1.808 l 0,-0.005 9.948,0 0,0.005 c 1,0.041 1.797,0.837 1.797,1.808 0,0.025 -0.002,0.054 -0.002,0.078 l 0.002,0 0,4.019 c -0.002,0.971 -0.806,1.76 -1.797,1.801 l 0,0.003 -9.423,0 c -0.229,0.009 -0.418,0.199 -0.428,0.435 l 0,3.132 c 0.01,0.237 0.188,0.423 0.417,0.437 l 8.956,0 c 0.229,-0.014 0.405,-0.191 0.415,-0.413 l 0,-0.441 c 0.007,-0.511 0.418,-0.926 0.926,-0.926 0.516,0 0.932,0.415 0.934,0.926 l 0,0.827 -0.002,0 C -0.002,-0.042 0,-0.021 0,0" />
      </g>
      <path
         inkscape:connector-curvature="0"
         id="path5480"
         style="fill:#4d4d4f;fill-opacity:1;fill-rule:nonzero;stroke:none"
         d="m 276.61635,123.91244 -19.17043,0 0,140.67299 19.17043,0 0,-140.67299 z" />
      <g
         transform="matrix(10.367997,0,0,-10.367997,-549.47979,123.91136)"
         id="g5482">
        <path
           inkscape:connector-curvature="0"
           id="path5484"
           style="fill:#4d4d4f;fill-opacity:1;fill-rule:nonzero;stroke:none"
           d="m 0,0 -5.572,-11.203 c -0.06,-0.177 -0.402,-0.308 -0.595,-0.308 -0.204,0 -0.545,0.131 -0.605,0.308 L -12.34,0.003 -14.203,0 l 6.589,-13.568 2.887,0 L 1.86,0 0,0 Z" />
      </g>
      <g
         transform="matrix(10.367997,0,0,-10.367997,202.98391,123.91136)"
         id="g5486">
        <path
           inkscape:connector-curvature="0"
           id="path5488"
           style="fill:#4d4d4f;fill-opacity:1;fill-rule:nonzero;stroke:none"
           d="m 0,0 -5.584,-11.203 c -0.051,-0.177 -0.397,-0.308 -0.589,-0.308 -0.2,0 -0.546,0.131 -0.601,0.308 L -12.346,0.003 -14.202,0 l 6.584,-13.568 2.887,0 L 1.865,0 0,0 Z" />
      </g>
      <g
         transform="matrix(10.367997,0,0,-10.367997,19.06493,123.91136)"
         id="g5490">
        <path
           inkscape:connector-curvature="0"
           id="path5492"
           style="fill:#4d4d4f;fill-opacity:1;fill-rule:nonzero;stroke:none"
           d="m 0,0 -1.85,0 0,-11.271 c 0,-0.24 -0.194,-0.436 -0.439,-0.442 l -8.925,0 c -0.226,0.006 -0.409,0.187 -0.428,0.405 l 0,11.308 -1.857,0 0,-11.442 0.03,0 c -0.011,-0.103 -0.03,-0.206 -0.03,-0.312 0,-0.96 0.777,-1.74 1.756,-1.808 l 0,-0.006 9.951,0 0,0.006 C -0.796,-13.522 0,-12.726 0,-11.754 L 0,-11.676 0,0 Z" />
      </g>
      <g
         transform="matrix(10.367997,0,0,-10.367997,476.49682,123.91136)"
         id="g5494">
        <path
           inkscape:connector-curvature="0"
           id="path5496"
           style="fill:#4d4d4f;fill-opacity:1;fill-rule:nonzero;stroke:none"
           d="m 0,0 -1.856,0 0,-11.271 c 0,-0.24 -0.187,-0.436 -0.434,-0.442 l -8.925,0 c -0.229,0.006 -0.41,0.187 -0.429,0.405 l 0,11.308 -1.85,0 0,-11.442 0.025,0 c -0.021,-0.103 -0.025,-0.206 -0.025,-0.312 0,-0.96 0.773,-1.74 1.752,-1.808 l 0,-0.006 9.949,0 0,0.006 c 0.993,0.04 1.793,0.836 1.793,1.808 0,0.025 -0.006,0.053 -0.006,0.078 L 0,-11.676 0,0 Z" />
      </g>
      <g
         transform="matrix(10.367997,0,0,-10.367997,-469.84735,143.09216)"
         id="g5498">
        <path
           inkscape:connector-curvature="0"
           id="path5500"
           style="fill:#4d4d4f;fill-opacity:1;fill-rule:nonzero;stroke:none"
           d="m 0,0 10.631,0 0,1.852 -12.896,0 0,-5.856 -0.008,0 0,-1.855 0.008,0 0,-5.859 12.896,0 0,1.854 -10.615,0 c -0.233,0.007 -0.418,0.194 -0.43,0.419 l 0,3.169 c 0.012,0.228 0.186,0.402 0.408,0.417 l 6.542,0 0,1.855 -6.53,0 c -0.223,0.009 -0.408,0.187 -0.42,0.418 l 0,3.168 C -0.402,-0.192 -0.228,-0.014 0,0" />
      </g>
      <g
         transform="matrix(10.367997,0,0,-10.367997,-175.81087,142.70755)"
         id="g5502">
        <path
           inkscape:connector-curvature="0"
           id="path5504"
           style="fill:#4d4d4f;fill-opacity:1;fill-rule:nonzero;stroke:none"
           d="m 0,0 c 0,0.979 -0.799,1.774 -1.796,1.813 l 0,0.002 -9.953,0 0,-0.005 c -0.975,-0.06 -1.748,-0.84 -1.75,-1.799 l 0,-4.02 0.002,0 c 0,-0.023 -0.002,-0.046 -0.002,-0.073 0,-0.961 0.773,-1.748 1.75,-1.807 l 0,-0.007 9.463,0 c 0.226,-0.005 0.417,-0.183 0.425,-0.41 l 0,-3.177 c -0.008,-0.23 -0.199,-0.411 -0.425,-0.418 l -8.932,0 c -0.235,0.007 -0.431,0.202 -0.431,0.437 l 0,0.424 c -0.003,0.514 -0.417,0.922 -0.925,0.922 -0.512,0 -0.923,-0.408 -0.925,-0.922 l 0,-0.83 0.002,0 c 0,-0.024 -0.002,-0.047 -0.002,-0.072 0,-0.959 0.773,-1.739 1.75,-1.808 l 0,-0.005 9.953,0 0,0.005 c 0.997,0.041 1.796,0.837 1.796,1.808 0,0.025 0,0.054 -0.007,0.078 l 0.007,0 0,4.019 c -0.007,0.971 -0.803,1.76 -1.796,1.801 l 0,0.003 -9.43,0 c -0.232,0.009 -0.423,0.199 -0.423,0.435 l 0,3.132 c 0,0.237 0.191,0.423 0.419,0.437 l 8.962,0 c 0.219,-0.014 0.399,-0.191 0.407,-0.413 l 0,-0.441 0.006,0 c 0,-0.511 0.416,-0.926 0.922,-0.926 0.511,0 0.926,0.415 0.933,0.926 l 0,0.827 -0.007,0 C -0.007,-0.042 0,-0.021 0,0" />
      </g>
      <g
         transform="matrix(10.367997,0,0,-10.367997,671.02218,142.70755)"
         id="g5506">
        <path
           inkscape:connector-curvature="0"
           id="path5508"
           style="fill:#4d4d4f;fill-opacity:1;fill-rule:nonzero;stroke:none"
           d="m 0,0 c 0,0.979 -0.797,1.774 -1.797,1.813 l 0,0.002 -9.948,0 0,-0.005 C -12.723,1.75 -13.49,0.97 -13.501,0.011 l 0,-4.02 0.003,0 c 0,-0.023 -0.003,-0.046 -0.003,-0.073 0,-0.961 0.778,-1.748 1.756,-1.807 l 0,-0.007 9.456,0 c 0.236,-0.005 0.419,-0.183 0.429,-0.41 l 0,-3.177 c -0.01,-0.23 -0.198,-0.411 -0.429,-0.418 l -8.923,0 c -0.237,0.007 -0.426,0.202 -0.436,0.437 l 0,0.424 c 0,0.514 -0.409,0.922 -0.921,0.922 -0.511,0 -0.929,-0.408 -0.932,-0.922 l 0,-0.83 0.011,0 c -0.008,-0.024 -0.011,-0.047 -0.011,-0.072 0,-0.959 0.778,-1.739 1.756,-1.808 l 0,-0.005 9.948,0 0,0.005 c 1,0.041 1.797,0.837 1.797,1.808 0,0.025 -0.002,0.054 -0.002,0.078 l 0.002,0 0,4.019 c -0.002,0.971 -0.806,1.76 -1.797,1.801 l 0,0.003 -9.423,0 c -0.229,0.009 -0.418,0.199 -0.428,0.435 l 0,3.132 c 0.01,0.237 0.188,0.423 0.417,0.437 l 8.956,0 c 0.229,-0.014 0.405,-0.191 0.415,-0.413 l 0,-0.441 c 0.007,-0.511 0.418,-0.926 0.926,-0.926 0.516,0 0.932,0.415 0.934,0.926 l 0,0.827 -0.002,0 C -0.002,-0.042 0,-0.021 0,0" />
      </g>
    </g>
  </g>
</svg>
